<svg xmlns="http://www.w3.org/2000/svg" viewBox="0 0 200 50" fill="none"><path d="M40 25C40 34.3888 32.3888 42 23 42C13.6112 42 6 34.3888 6 25C6 15.6112 13.6112 8 23 8C32.3888 8 40 15.6112 40 25Z" stroke="currentColor" stroke-width="2"/><path d="M23 15V25L30 30" stroke="currentColor" stroke-width="2" stroke-linecap="round"/><path d="M60 18L65 33H67L72 18H70L66 31L62 18H60Z" fill="currentColor"/><path d="M75 18V33H77V18H75Z" fill="currentColor"/><path d="M81 18V33H83V27H88C90.2091 27 92 25.2091 92 23C92 20.7909 90.2091 19 88 19H81V21H88C89.1046 21 90 21.8954 90 23C90 24.1046 89.1046 25 88 25H83V18H81Z" fill="currentColor"/><path d="M95 18V33H103C105.761 33 108 30.7614 108 28C108 25.2386 105.761 23 103 23H97V21H107V19H97V18H95ZM97 25H103C104.657 25 106 26.3431 106 28C106 29.6569 104.657 31 103 31H97V25Z" fill="currentColor"/><path d="M120 19H112V21H115V33H117V21H120V19Z" fill="currentColor"/><path d="M122 18V33H132V31H124V26H131V24H124V20H132V18H122Z" fill="currentColor"/><path d="M135 18V33H145V31H137V26H144V24H137V20H145V18H135Z" fill="currentColor"/><path d="M148 18V33H157C158.657 33 160 31.6569 160 30C160 28.3431 158.657 27 157 27C158.657 27 160 25.6569 160 24C160 22.3431 158.657 21 157 21H150V18H148ZM150 21H157C157.552 21 158 21.4477 158 22C158 22.5523 157.552 23 157 23H150V21ZM150 27H157C157.552 27 158 27.4477 158 28C158 28.5523 157.552 29 157 29H150V27Z" fill="currentColor"/><path d="M163 18V33H172C173.657 33 175 31.6569 175 30C175 28.3431 173.657 27 172 27C173.657 27 175 25.6569 175 24C175 22.3431 173.657 21 172 21H165V18H163ZM165 21H172C172.552 21 173 21.4477 173 22C173 22.5523 172.552 23 172 23H165V21ZM165 27H172C172.552 27 173 27.4477 173 28C173 28.5523 172.552 29 172 29H165V27Z" fill="currentColor"/><path d="M178 18V33H180V27H185C187.209 27 189 25.2091 189 23C189 20.7909 187.209 19 185 19H178V21H185C186.105 21 187 21.8954 187 23C187 24.1046 186.105 25 185 25H180V18H178Z" fill="currentColor"/></svg>